<?xml version="1.0" encoding="UTF-8"?>
<svg version="1.1" xmlns="http://www.w3.org/2000/svg" width="250" height="250">
    <path d="M 0 0 
        C 1.1088707 -0.00990463 2.21774139 -0.01980927 3.36021423 -0.03001404 
        C 5.17055649 -0.02326157 5.17055649 -0.02326157 7.01747131 -0.01637268 
        C 8.296035 -0.02323593 9.57459869 -0.03009918 10.89190674 -0.03717041 
        C 14.39197481 -0.05509243 17.89179204 -0.0539353 21.39189219 -0.04822803 
        C 24.31682719 -0.04513467 27.2417141 -0.05123027 30.16664225 -0.05726677 
        C 37.06845679 -0.07130732 43.97014753 -0.06975476 50.8719635 -0.05836487 
        C 57.98562094 -0.0468846 65.09890134 -0.06095856 72.2125091 -0.08776134 
        C 78.32648047 -0.1099328 84.44033362 -0.11655248 90.55434233 -0.11068493 
        C 94.2031387 -0.1073175 97.8516934 -0.10971587 101.50045586 -0.12693596 
        C 105.57017188 -0.14530495 109.63915637 -0.13120332 113.70887756 -0.11402893 
        C 115.51618347 -0.12853088 115.51618347 -0.12853088 117.36000061 -0.14332581 
        C 123.48136597 -0.08917553 127.77279823 -0.05061049 132.4278717 4.38768005 
        C 135.61597881 8.59020494 135.85678044 12.28589748 135.81555176 17.38949585 
        C 135.82363006 18.59011834 135.82363006 18.59011834 135.83187157 19.81499583 
        C 135.88687054 72.62157448 135.88529682 82.89850612 135.87391663 93.17552185 
        C 135.92286388 157.733331 135.92530376 163.17045833 135.94248772 168.60772514 
        C 135.95794078 173.72055271 135.9540194 178.83300529 135.93518257 183.94581795 
        C 135.93149217 185.82193047 135.93461826 187.69807067 135.94506836 189.57415771 
        C 135.95824928 192.13616546 135.94675709 194.69692653 135.92907715 197.25888062 
        C 135.94348466 198.37148794 135.94348466 198.37148794 135.95818323 199.50657219 
        C 135.88586928 204.60250159 134.72145613 207.51906138 131.4278717 211.38768005 
        C 127.8709622 214.12861619 125.30335714 214.76411442 120.85574341 214.77536011 
        C 119.74687271 214.78526474 118.63800201 214.79516937 117.49552917 214.80537415 
        C 116.28863434 214.8008725 115.0817395 214.79637085 113.83827209 214.79173279 
        C 112.5597084 214.79859604 111.28114471 214.80545929 109.96383667 214.81253052 
        C 106.4637686 214.83045254 102.96395136 214.82929541 99.46385121 214.82358813 
        C 96.53891622 214.82049478 93.61402931 214.82659037 90.68910116 214.83262688 
        C 83.78728662 214.84666743 76.88559587 214.84511487 69.98377991 214.83372498 
        C 62.87012246 214.8222447 55.75684207 214.83631867 48.64323431 214.86312145 
        C 42.52926294 214.88529291 36.41540979 214.89191258 30.30140108 214.88604504 
        C 26.65260471 214.88267761 23.00405001 214.88507597 19.35528755 214.90229607
        C 15.28557153 214.92066505 11.21658704 214.90656342 7.14686584 214.88938904 
        C 5.33955994 214.90389099 5.33955994 214.90389099 3.4957428 214.91868591
        C -2.62562256 214.86453564 -6.91705483 214.8259706 -11.5721283 210.38768005
        C -14.44520781 206.70507252 -14.94237753 204.02314402 -14.91270447 199.40403748
        C -14.91247787 198.22319077 -14.91225128 197.04234406 -14.91201782 195.82571411
        C -14.89653397 194.56096756 -14.88105011 193.29622101 -14.86509705 191.9931488
        C -14.8608522 190.69065689 -14.85660736 189.38816498 -14.85223389 188.04620361
        C -14.84081842 184.59535738 -14.81138046 181.14489423 -14.77812195 177.69419861
        C -14.74734937 174.16825034 -14.73371326 170.64223974 -14.71861267 167.11619568
        C -14.68650698 160.20653382 -14.6353511 153.29712536 -14.5721283 146.38768005
        C -13.62603699 146.19939636 -12.67994568 146.01111267 -11.70518494 145.81712341
        C -10.45600281 145.56068054 -9.20682068 145.30423767 -7.91978455 145.0400238
        C -6.68494324 144.78986511 -5.45010193 144.53970642 -4.17784119 144.28196716 
        C 5.18524692 141.95973873 12.96741956 137.27254036 18.1153717 129.01268005 
        C 18.98742249 127.63982849 18.98742249 127.63982849 19.87709045 126.23924255 
        C 24.93500008 116.9388042 25.3135842 107.44523684 22.4278717 97.38768005 
        C 19.23516424 89.48460489 15.40160052 83.28027014 8.0528717 78.70018005 
        C 7.13763733 78.11881287 6.22240295 77.53744568 5.2794342 76.9384613 
        C 0.56463647 74.37438637 -4.03105433 73.26546388 -9.28062439 72.33030701
        C -10.27146027 72.15296524 -11.26229614 71.97562347 -12.28315735 71.79290771
        C -13.03851776 71.65918259 -13.79387817 71.52545746 -14.5721283 71.38768005
        C -14.66497783 63.40756825 -14.73596829 55.42768369 -14.77937698 47.44716454
        C -14.80021545 43.74110655 -14.82846332 40.03541926 -14.87388611 36.32957458
        C -14.91747942 32.75042219 -14.94129353 29.17162541 -14.95163727 25.59222794
        C -14.95900465 24.22949758 -14.97339167 22.86678579 -14.99504852 21.50420761
        C -15.17821592 9.49792385 -15.17821592 9.49792385 -12.86021423 5.69090271
        C -8.87162131 1.67592345 -5.67605084 0.01435176 0 0 Z " fill="#FFFFFF" transform="translate(44.57212829589844,9.612319946289063)"/>
    <path d="M 0 0 
        C 3.87474457 -0.11668214 7.74903396 -0.18741231 11.625 -0.25 
        C 13.26662109 -0.30027344 13.26662109 -0.30027344 14.94140625 -0.3515625 
        C 21.09071747 -0.42609961 25.31346541 -0.45903291 30 4 
        C 33.18881374 8.20191151 33.42890747 11.89837398 33.38768005 17.0018158 
        C 33.39575836 18.20243828 33.39575836 18.20243828 33.40399987 19.42731577 
        C 33.41829543 22.10656725 33.41117185 24.78532579 33.40405273 27.46459961 
        C 33.40975547 29.38661598 33.41671935 31.30862896 33.42485046 33.2306366 
        C 33.44280763 38.44963396 33.44160867 43.66846342 33.43590808 48.8874824 
        C 33.43281995 53.24396051 33.4389045 57.60040618 33.44494683 61.95687968 
        C 33.45899883 72.23389443 33.45742511 82.51082607 33.44604492 92.7878418 
        C 33.43456255 103.39147315 33.44863991 113.99485162 33.4754414 124.59844965 
        C 33.49758965 133.70177173 33.50423775 142.80501438 33.49836498 151.90836149 
        C 33.49499218 157.34565095 33.49743206 162.78277828 33.51461601 168.22004509 
        C 33.53006907 173.33287265 33.52614769 178.44532523 33.50731087 183.55813789 
        C 33.50362047 185.43425041 33.50674655 187.31039062 33.51719666 189.18647766 
        C 33.53037758 191.74848541 33.51888539 194.30924648 33.50120544 196.87120056 
        C 33.51561295 197.98380789 33.51561295 197.98380789 33.53031152 199.11889213 
        C 33.45799757 204.21482154 32.29358442 207.13138132 29 211 
        C 25.44309049 213.74093614 22.87548544 214.37643437 18.4278717 214.38768005 
        C 17.31900101 214.39758469 16.21013031 214.40748932 15.06765747 214.41769409 
        C 13.86076263 214.41319244 12.6538678 214.4086908 11.41040039 214.40405273 
        C 10.1318367 214.41091599 8.85327301 214.41777924 7.53596497 214.42485046 
        C 4.0358969 214.44277249 0.53607966 214.44161536 -2.96402049 214.43590808
        C -5.88895548 214.43281472 -8.8138424 214.43891032 -11.73877054 214.44494683
        C -18.64058508 214.45898737 -25.54227583 214.45743481 -32.4440918 214.44604492
        C -39.55774924 214.43456465 -46.67102963 214.44863861 -53.78463739 214.4754414
        C -59.89860877 214.49761285 -66.01246191 214.50423253 -72.12647063 214.49836498
        C -75.77526699 214.49499755 -79.42382169 214.49739592 -83.07258415 214.51461601
        C -87.14230017 214.532985 -91.21128466 214.51888337 -95.28100586 214.50170898
        C -97.08831177 214.51621094 -97.08831177 214.51621094 -98.93212891 214.53100586
        C -109.46701693 214.43781308 -109.46701693 214.43781308 -114 210
        C -115.375 207.25 -115.375 207.25 -116 205
        C -114.13197472 204.99120064 -114.13197472 204.99120064 -112.22621155 204.98222351
        C -100.47068907 204.92492712 -88.71535034 204.85212914 -76.9600153 204.76428509
        C -70.9169607 204.71962184 -64.8739729 204.6803566 -58.83081055 204.65356445
        C -52.99516052 204.62749143 -47.15976807 204.58706022 -41.32427788 204.53681374
        C -39.10167083 204.52017215 -36.87901926 204.50864106 -34.65635872 204.50238609
        C -31.5350376 204.49271573 -28.41437146 204.46462057 -25.29321289 204.43237305
        C -23.92511223 204.43452568 -23.92511223 204.43452568 -22.52937317 204.4367218
        C -16.69505225 204.35187902 -11.28272906 203.63080825 -6 201
        C -0.97530447 195.22160014 -0.85171766 189.54757881 -0.84178162 182.18559265
        C -0.83684364 181.40544558 -0.83190566 180.62529851 -0.82681805 179.82151061
        C -0.81147842 177.21133144 -0.80309202 174.6011768 -0.79467773 171.9909668
        C -0.78509643 170.11832972 -0.7750862 168.2456948 -0.76467896 166.37306213
        C -0.73765117 161.29088944 -0.71663007 156.20870748 -0.69667697 151.12650275
        C -0.67480432 145.81469012 -0.64742188 140.50290598 -0.62062073 135.19111633
        C -0.57071116 125.13316373 -0.52576587 115.07519529 -0.48259836 105.01721174
        C -0.43321117 93.56626702 -0.37829853 82.1153509 -0.32291877 70.66443384
        C -0.20912536 47.10964924 -0.10228055 23.55483721 0 0 Z " fill="#FFFFFF" transform="translate(187,26)"/>
    <path d="M 256,0 C 114.6, 0, 0, 114.6, 0, 256
        s 114.6, 256, 256, 256
        s 256 -114.6, 256 -256S397.4, 0, 256, 0z 
        M 405.3, 277.3
        c 0, 11.8 -9.5, 21.3 -21.3, 21.3
	    h -85.3 V 384
        c 0, 11.8 -9.5, 21.3 -21.3, 21.3h -42.7
        c -11.8, 0 -21.3 -9.6 -21.3 -21.3v -85.3H128c -11.8, 0 -21.3 -9.6 -21.3 -21.3v -42.7
	    c 0 -11.8, 9.5 -21.3, 21.3 -21.3h 85.3V128c 0 -11.8, 9.5 -21.3, 21.3 -21.3h 42.7c 11.8, 0, 21.3, 9.6, 21.3, 21.3v 85.3H384c 11.8, 0, 21.3, 9.6, 21.3, 21.3
	V277.3z" transform="translate(5,90), scale(0.106)" fill="#FFFFFF"/>
</svg>
